<?xml version="1.0" encoding="UTF-8" standalone="no"?>
<!-- Created with Inkscape (http://www.inkscape.org/) -->

<svg
   width="50.442261mm"
   height="43.228096mm"
   viewBox="0 0 50.442261 43.228096"
   version="1.1"
   id="svg5979"
   inkscape:version="1.2.1 (9c6d41e410, 2022-07-14)"
   sodipodi:docname="NewCloudyneMergedFlattened.svg"
   xmlns:inkscape="http://www.inkscape.org/namespaces/inkscape"
   xmlns:sodipodi="http://sodipodi.sourceforge.net/DTD/sodipodi-0.dtd"
   xmlns="http://www.w3.org/2000/svg"
   xmlns:svg="http://www.w3.org/2000/svg">
  <sodipodi:namedview
     id="namedview5981"
     pagecolor="#ffffff"
     bordercolor="#000000"
     borderopacity="0.25"
     inkscape:showpageshadow="2"
     inkscape:pageopacity="0.0"
     inkscape:pagecheckerboard="0"
     inkscape:deskcolor="#d1d1d1"
     inkscape:document-units="mm"
     showgrid="false"
     inkscape:zoom="2"
     inkscape:cx="3608.25"
     inkscape:cy="434.5"
     inkscape:window-width="2880"
     inkscape:window-height="1694"
     inkscape:window-x="-11"
     inkscape:window-y="-11"
     inkscape:window-maximized="1"
     inkscape:current-layer="layer1">
    <inkscape:grid
       type="xygrid"
       id="grid7321" />
  </sodipodi:namedview>
  <defs
     id="defs5976" />
  <g
     inkscape:label="Layer 1"
     inkscape:groupmode="layer"
     id="layer1"
     transform="translate(-621.89866,-5.3723365)">
    <g
       id="g72078-2-1-3"
       inkscape:label="ColoredWithTextBelow"
       inkscape:export-filename="CloudyneSystemsSquareNoBG.svg"
       inkscape:export-xdpi="251.77296"
       inkscape:export-ydpi="251.77296"
       transform="matrix(0.84836332,0,0,0.84836332,532.85008,-36.561432)"
       style="fill:#33537d;fill-opacity:1">
      <g
         aria-label="CLOUDYNE"
         id="text68348-6-9-6-4"
         style="font-weight:300;font-size:9.01762px;font-family:Comfortaa;-inkscape-font-specification:'Comfortaa Light';fill:#e48412;stroke-width:0.511234;stroke-linecap:round;stroke-dashoffset:1.69739;paint-order:stroke fill markers">
        <path
           d="m 111.51303,93.505185 q -0.73043,0 -1.37068,-0.279546 -0.63123,-0.279547 -1.11818,-0.775516 -0.47794,-0.495969 -0.74847,-1.145238 -0.26151,-0.658286 -0.26151,-1.415766 0,-0.748462 0.26151,-1.397731 0.27053,-0.658286 0.74847,-1.145238 0.47793,-0.495969 1.10916,-0.775515 0.64025,-0.288564 1.3797,-0.288564 0.65829,0 1.18131,0.18937 0.52302,0.180352 1.01899,0.595163 0.0812,0.06312 0.0992,0.144282 0.0271,0.07214 0,0.144282 -0.018,0.07214 -0.0631,0.126247 -0.018,0.09919 -0.10821,0.162317 -0.0812,0.05411 -0.19839,0.05411 -0.11723,0 -0.23446,-0.09018 -0.34267,-0.306599 -0.73944,-0.450881 -0.39678,-0.153299 -0.95587,-0.153299 -0.56811,0 -1.0731,0.234458 -0.49597,0.22544 -0.87471,0.622216 -0.37874,0.396775 -0.59516,0.919797 -0.2074,0.523022 -0.2074,1.109167 0,0.604181 0.2074,1.127203 0.21642,0.523022 0.59516,0.919797 0.37874,0.396775 0.87471,0.622216 0.50499,0.22544 1.0731,0.22544 0.47793,0 0.91078,-0.162317 0.43285,-0.162317 0.82962,-0.459899 0.12625,-0.09919 0.25249,-0.08116 0.13527,0.01804 0.22544,0.117229 0.0992,0.09018 0.0992,0.252493 0,0.08116 -0.0271,0.144282 -0.0271,0.06312 -0.0812,0.135264 -0.46892,0.405793 -1.03703,0.595163 -0.55909,0.180353 -1.17229,0.180353 z"
           style="font-weight:500;-inkscape-font-specification:'Comfortaa Medium'"
           id="path14168" />
        <path
           d="m 115.68819,93.415009 q -0.16232,0 -0.27955,-0.108212 -0.10821,-0.108211 -0.10821,-0.279546 v -6.267246 q 0,-0.162317 0.10821,-0.270529 0.11723,-0.117229 0.27955,-0.117229 0.16231,0 0.27053,0.117229 0.11722,0.108212 0.11722,0.270529 v 5.906541 h 3.44474 q 0.16231,0 0.27052,0.108212 0.11723,0.108211 0.11723,0.261511 0,0.162317 -0.11723,0.270528 -0.10821,0.108212 -0.27052,0.108212 z"
           style="font-weight:500;-inkscape-font-specification:'Comfortaa Medium'"
           id="path14170" />
        <path
           d="m 123.65976,93.505185 q -0.78453,0 -1.44282,-0.270529 -0.65828,-0.270528 -1.14523,-0.748462 -0.47794,-0.486952 -0.73945,-1.145238 -0.26151,-0.667304 -0.26151,-1.451837 0,-0.784533 0.26151,-1.442819 0.26151,-0.658286 0.73945,-1.13622 0.48695,-0.486952 1.14523,-0.75748 0.65829,-0.270529 1.44282,-0.270529 0.78454,0 1.4338,0.270529 0.65829,0.270528 1.14524,0.75748 0.48695,0.477934 0.74846,1.13622 0.26152,0.658286 0.26152,1.442819 0,0.784533 -0.26152,1.451837 -0.26151,0.658286 -0.74846,1.145238 -0.48695,0.477934 -1.14524,0.748462 -0.64926,0.270529 -1.4338,0.270529 z m 0,-0.72141 q 0.6132,0 1.12721,-0.216423 0.52302,-0.22544 0.90176,-0.613198 0.38775,-0.396775 0.59516,-0.919797 0.20741,-0.53204 0.20741,-1.145238 0,-0.613198 -0.20741,-1.13622 -0.20741,-0.53204 -0.59516,-0.919797 -0.37874,-0.396776 -0.90176,-0.613198 -0.51401,-0.216423 -1.12721,-0.216423 -0.6132,0 -1.13622,0.216423 -0.52302,0.216422 -0.90176,0.613198 -0.37874,0.387757 -0.59516,0.919797 -0.20741,0.523022 -0.20741,1.13622 0,0.613198 0.20741,1.145238 0.21642,0.523022 0.59516,0.919797 0.37874,0.387758 0.90176,0.613198 0.52302,0.216423 1.13622,0.216423 z"
           style="font-weight:500;-inkscape-font-specification:'Comfortaa Medium'"
           id="path14172" />
        <path
           d="m 131.55919,93.55929 q -0.83864,0 -1.4879,-0.315616 -0.64026,-0.315617 -1.00096,-0.874709 -0.3607,-0.56811 -0.3607,-1.28952 v -4.31944 q 0,-0.171335 0.10821,-0.279546 0.10821,-0.108212 0.27954,-0.108212 0.17134,0 0.27955,0.108212 0.10821,0.108211 0.10821,0.279546 v 4.31944 q 0,0.514004 0.26151,0.91078 0.26151,0.396775 0.73043,0.622215 0.47793,0.225441 1.08211,0.225441 0.59517,0 1.04605,-0.225441 0.4599,-0.22544 0.72141,-0.622215 0.26151,-0.396776 0.26151,-0.91078 v -4.31944 q 0,-0.171335 0.10821,-0.279546 0.11723,-0.108212 0.27955,-0.108212 0.18035,0 0.27954,0.108212 0.10821,0.108211 0.10821,0.279546 v 4.31944 q 0,0.72141 -0.3607,1.28952 -0.36071,0.559092 -0.99194,0.874709 -0.63123,0.315616 -1.45184,0.315616 z"
           style="font-weight:500;-inkscape-font-specification:'Comfortaa Medium'"
           id="path14174" />
        <path
           d="m 136.55495,93.415009 q -0.17133,0 -0.27954,-0.108212 -0.10822,-0.108211 -0.10822,-0.279546 v -6.267246 q 0,-0.171335 0.10822,-0.279546 0.10821,-0.108212 0.27954,-0.108212 h 1.62317 q 0.77552,0 1.41577,0.261511 0.64927,0.252494 1.11818,0.730427 0.46892,0.468917 0.72141,1.109168 0.2525,0.640251 0.2525,1.415766 0,0.775515 -0.2525,1.424784 -0.25249,0.640251 -0.72141,1.118185 -0.46891,0.468916 -1.11818,0.730427 -0.64025,0.252494 -1.41577,0.252494 z m 0.38776,-0.694357 h 1.23541 q 0.81159,0 1.42479,-0.360705 0.62221,-0.369722 0.9739,-1.009973 0.35169,-0.640251 0.35169,-1.460855 0,-0.820603 -0.35169,-1.460854 -0.35169,-0.640251 -0.9739,-1.000956 -0.6132,-0.360705 -1.42479,-0.360705 h -1.23541 z"
           style="font-weight:500;-inkscape-font-specification:'Comfortaa Medium'"
           id="path14176" />
        <path
           d="m 144.83312,93.415009 q -0.1533,0 -0.27053,-0.108212 -0.11723,-0.117229 -0.11723,-0.279546 v -2.209317 l -2.43476,-3.841506 q -0.0992,-0.1533 -0.0812,-0.288564 0.0271,-0.135264 0.12624,-0.225441 0.10821,-0.09018 0.2525,-0.09018 0.12624,0 0.19838,0.05411 0.0721,0.05411 0.13527,0.144282 l 2.38967,3.832488 h -0.36973 l 2.39869,-3.832488 q 0.0631,-0.09919 0.14428,-0.144282 0.0812,-0.05411 0.20741,-0.05411 0.13526,0 0.22544,0.09919 0.0902,0.09018 0.10821,0.234458 0.018,0.135265 -0.0721,0.270529 l -2.45279,3.841506 v 2.209317 q 0,0.162317 -0.11723,0.279546 -0.10821,0.108212 -0.27053,0.108212 z"
           style="font-weight:500;-inkscape-font-specification:'Comfortaa Medium'"
           id="path14178" />
        <path
           d="m 149.08042,93.415009 q -0.17133,0 -0.27954,-0.108212 -0.10821,-0.108211 -0.10821,-0.279546 v -6.267246 q 0,-0.171335 0.10821,-0.279546 0.10821,-0.108212 0.27954,-0.108212 0.18036,0 0.29759,0.144282 l 4.19319,5.527801 v -5.284325 q 0,-0.171335 0.10821,-0.279546 0.10821,-0.108212 0.27955,-0.108212 0.16231,0 0.27053,0.108212 0.11722,0.108211 0.11722,0.279546 v 6.267246 q 0,0.171335 -0.11722,0.279546 -0.10822,0.108212 -0.27053,0.108212 -0.0812,0 -0.16232,-0.02705 -0.0812,-0.03607 -0.13526,-0.108212 l -4.1932,-5.527801 v 5.275308 q 0,0.171335 -0.11723,0.279546 -0.10821,0.108212 -0.27053,0.108212 z"
           style="font-weight:500;-inkscape-font-specification:'Comfortaa Medium'"
           id="path14180" />
        <path
           d="m 156.53799,93.415009 q -0.17133,0 -0.27954,-0.108212 -0.10821,-0.108211 -0.10821,-0.279546 v -6.267246 q 0,-0.171335 0.10821,-0.279546 0.10821,-0.108212 0.27954,-0.108212 h 4.18418 q 0.16232,0 0.27053,0.108212 0.10821,0.09919 0.10821,0.261511 0,0.153299 -0.10821,0.261511 -0.10821,0.09919 -0.27053,0.09919 h -3.79642 v 2.398687 h 2.75038 q 0.17133,0 0.27954,0.108212 0.10821,0.108211 0.10821,0.261511 0,0.162317 -0.10821,0.270528 -0.10821,0.09919 -0.27954,0.09919 h -2.75038 v 2.443775 h 3.79642 q 0.16232,0 0.27053,0.108212 0.10821,0.09919 0.10821,0.252493 0,0.162317 -0.10821,0.270529 -0.10821,0.09919 -0.27053,0.09919 z"
           style="font-weight:500;-inkscape-font-specification:'Comfortaa Medium'"
           id="path14182" />
      </g>
      <g
         aria-label="SYSTEMS"
         transform="scale(1.0189377,0.98141427)"
         id="text68348-7-0-49-8-3"
         style="font-weight:300;font-size:6.66726px;font-family:Comfortaa;-inkscape-font-specification:'Comfortaa Light';letter-spacing:3.43441px;stroke-width:0.377984;stroke-linecap:round;stroke-dashoffset:1.69739;paint-order:stroke fill markers">
        <path
           d="m 108.05041,102.28439 q -0.42004,0 -0.7734,-0.11335 -0.3467,-0.12001 -0.60005,-0.33336 -0.25336,-0.22002 -0.40004,-0.51338 -0.04,-0.08 -0.007,-0.15335 0.04,-0.0733 0.12668,-0.10001 0.0733,-0.0267 0.14668,0.007 0.0733,0.0333 0.11334,0.10668 0.12002,0.21335 0.31337,0.37336 0.20001,0.16002 0.4667,0.24669 0.27336,0.08 0.61339,0.08 0.38004,0 0.65339,-0.12668 0.28003,-0.12668 0.42671,-0.37337 0.15335,-0.24668 0.15335,-0.60005 0,-0.44004 -0.32003,-0.74006 -0.31336,-0.306698 -0.96009,-0.393373 -0.74673,-0.106676 -1.16677,-0.480042 -0.42004,-0.380034 -0.42004,-0.920082 0,-0.393369 0.19335,-0.686728 0.20002,-0.29336 0.55339,-0.453374 0.36003,-0.166681 0.82674,-0.166681 0.34669,0 0.64005,0.113343 0.29336,0.113343 0.51338,0.300027 0.22002,0.180016 0.34003,0.380034 0.0467,0.07334 0.02,0.160014 -0.02,0.08001 -0.10667,0.113343 -0.0733,0.02667 -0.14668,0.0067 -0.0733,-0.02667 -0.12001,-0.09334 -0.0933,-0.140013 -0.24002,-0.273358 -0.14668,-0.133345 -0.3667,-0.220019 -0.22002,-0.08667 -0.53338,-0.08667 -0.54672,0 -0.86008,0.246689 -0.31336,0.246688 -0.31336,0.700062 0,0.240022 0.12668,0.440039 0.13334,0.193351 0.41337,0.333363 0.28002,0.140013 0.71339,0.213353 0.86008,0.146679 1.23345,0.53338 0.38003,0.38004 0.38003,0.97342 0,0.3467 -0.12001,0.62672 -0.11334,0.28003 -0.33336,0.47338 -0.21336,0.19335 -0.51338,0.30003 -0.30003,0.10001 -0.66673,0.10001 z"
           id="path14185" />
        <path
           d="m 115.46517,102.21771 q -0.0867,0 -0.14668,-0.0533 -0.0533,-0.06 -0.0533,-0.14668 v -1.74682 l -1.84017,-2.946927 q -0.0467,-0.08001 -0.04,-0.146679 0.0133,-0.07334 0.06,-0.120011 0.0533,-0.04667 0.13334,-0.04667 0.0533,0 0.0867,0.02 0.04,0.02 0.0733,0.06 l 1.8735,3.053597 h -0.29336 l 1.84683,-3.006926 q 0.0467,-0.07334 0.0867,-0.100009 0.0467,-0.02667 0.10668,-0.02667 0.08,0 0.12668,0.04667 0.0467,0.04667 0.0533,0.120011 0.0133,0.07334 -0.0333,0.146679 l -1.84017,2.946925 v 1.74682 q 0,0.0867 -0.06,0.14668 -0.0533,0.0533 -0.14001,0.0533 z"
           id="path14187" />
        <path
           d="m 123.23329,102.28439 q -0.42004,0 -0.7734,-0.11335 -0.3467,-0.12001 -0.60005,-0.33336 -0.25336,-0.22002 -0.40004,-0.51338 -0.04,-0.08 -0.007,-0.15335 0.04,-0.0733 0.12668,-0.10001 0.0733,-0.0267 0.14668,0.007 0.0733,0.0333 0.11334,0.10668 0.12001,0.21335 0.31336,0.37336 0.20002,0.16002 0.46671,0.24669 0.27336,0.08 0.61339,0.08 0.38003,0 0.65339,-0.12668 0.28003,-0.12668 0.42671,-0.37337 0.15334,-0.24668 0.15334,-0.60005 0,-0.44004 -0.32002,-0.74006 -0.31337,-0.306698 -0.96009,-0.393373 -0.74673,-0.106676 -1.16677,-0.480042 -0.42004,-0.380034 -0.42004,-0.920082 0,-0.393369 0.19335,-0.686728 0.20002,-0.29336 0.55339,-0.453374 0.36003,-0.166681 0.82674,-0.166681 0.34669,0 0.64005,0.113343 0.29336,0.113343 0.51338,0.300027 0.22002,0.180016 0.34003,0.380034 0.0467,0.07334 0.02,0.160014 -0.02,0.08001 -0.10667,0.113343 -0.0733,0.02667 -0.14668,0.0067 -0.0733,-0.02667 -0.12001,-0.09334 -0.0933,-0.140013 -0.24002,-0.273358 -0.14668,-0.133345 -0.3667,-0.220019 -0.22002,-0.08667 -0.53338,-0.08667 -0.54672,0 -0.86008,0.246689 -0.31336,0.246688 -0.31336,0.700062 0,0.240022 0.12668,0.440039 0.13334,0.193351 0.41337,0.333363 0.28002,0.140013 0.71339,0.213353 0.86008,0.146679 1.23345,0.53338 0.38003,0.38004 0.38003,0.97342 0,0.3467 -0.12001,0.62672 -0.11334,0.28003 -0.33336,0.47338 -0.21336,0.19335 -0.51338,0.30003 -0.30003,0.10001 -0.66673,0.10001 z"
           id="path14189" />
        <path
           d="m 130.63471,102.21771 q -0.0867,0 -0.14668,-0.0533 -0.0533,-0.06 -0.0533,-0.14668 v -5.007108 h 0.40004 v 5.007108 q 0,0.0867 -0.06,0.14668 -0.0533,0.0533 -0.14001,0.0533 z m -1.88684,-4.847096 q -0.08,0 -0.13334,-0.04667 -0.0467,-0.05334 -0.0467,-0.133345 0,-0.08001 0.0467,-0.126678 0.0533,-0.05334 0.13334,-0.05334 h 3.77367 q 0.08,0 0.12668,0.05334 0.0533,0.04667 0.0533,0.126678 0,0.08001 -0.0533,0.133345 -0.0467,0.04667 -0.12668,0.04667 z"
           id="path14191" />
        <path
           d="m 137.10272,102.21771 q -0.0867,0 -0.14668,-0.0533 -0.0533,-0.06 -0.0533,-0.14668 V 97.2106 q 0,-0.08667 0.0533,-0.140012 0.06,-0.06001 0.14668,-0.06001 h 3.20695 q 0.08,0 0.14001,0.06001 0.06,0.05334 0.06,0.140012 0,0.08001 -0.06,0.140012 -0.06,0.06001 -0.14001,0.06001 h -3.00693 V 99.4108 h 2.20686 q 0.0867,0 0.14001,0.06 0.06,0.05334 0.06,0.140013 0,0.08667 -0.06,0.146679 -0.0533,0.06001 -0.14001,0.06001 h -2.20686 v 2.000178 h 3.00693 q 0.08,0 0.14001,0.06 0.06,0.06 0.06,0.14001 0,0.0867 -0.06,0.14668 -0.06,0.0533 -0.14001,0.0533 z"
           id="path14193" />
        <path
           d="m 145.11088,102.21771 q -0.0867,0 -0.14668,-0.0533 -0.0533,-0.06 -0.0533,-0.14668 V 97.2106 q 0,-0.08667 0.0533,-0.140012 0.06,-0.06001 0.14668,-0.06001 0.13334,0 0.18001,0.100009 l 2.36021,4.660423 h -0.23335 l 2.32687,-4.660423 q 0.06,-0.100009 0.18002,-0.100009 0.0867,0 0.14001,0.06001 0.0533,0.05334 0.0533,0.140012 v 4.80709 q 0,0.0867 -0.0533,0.14668 -0.0533,0.0533 -0.14001,0.0533 -0.0867,0 -0.14668,-0.0533 -0.06,-0.06 -0.06,-0.14668 v -4.327047 l 0.10001,0.03334 -2.12685,4.333717 q -0.0467,0.0933 -0.17335,0.0933 -0.12001,0 -0.18669,-0.12668 l -2.15352,-4.300377 0.13334,-0.03334 v 4.327047 q 0,0.0867 -0.06,0.14668 -0.0533,0.0533 -0.14001,0.0533 z"
           id="path14195" />
        <path
           d="m 156.446,102.28439 q -0.42004,0 -0.77341,-0.11335 -0.34669,-0.12001 -0.60005,-0.33336 -0.25336,-0.22002 -0.40003,-0.51338 -0.04,-0.08 -0.007,-0.15335 0.04,-0.0733 0.12668,-0.10001 0.0733,-0.0267 0.14668,0.007 0.0733,0.0333 0.11334,0.10668 0.12001,0.21335 0.31336,0.37336 0.20002,0.16002 0.46671,0.24669 0.27336,0.08 0.61339,0.08 0.38003,0 0.65339,-0.12668 0.28002,-0.12668 0.4267,-0.37337 0.15335,-0.24668 0.15335,-0.60005 0,-0.44004 -0.32003,-0.74006 -0.31336,-0.306698 -0.96008,-0.393373 -0.74674,-0.106676 -1.16677,-0.480042 -0.42004,-0.380034 -0.42004,-0.920082 0,-0.393369 0.19335,-0.686728 0.20002,-0.29336 0.55338,-0.453374 0.36003,-0.166681 0.82674,-0.166681 0.3467,0 0.64006,0.113343 0.29336,0.113343 0.51338,0.300027 0.22002,0.180016 0.34003,0.380034 0.0467,0.07334 0.02,0.160014 -0.02,0.08001 -0.10668,0.113343 -0.0733,0.02667 -0.14668,0.0067 -0.0733,-0.02667 -0.12001,-0.09334 -0.0933,-0.140013 -0.24002,-0.273358 -0.14668,-0.133345 -0.3667,-0.220019 -0.22002,-0.08667 -0.53338,-0.08667 -0.54671,0 -0.86008,0.246689 -0.31336,0.246688 -0.31336,0.700062 0,0.240022 0.12668,0.440039 0.13335,0.193351 0.41337,0.333363 0.28003,0.140013 0.7134,0.213353 0.86007,0.146679 1.23344,0.53338 0.38004,0.38004 0.38004,0.97342 0,0.3467 -0.12002,0.62672 -0.11334,0.28003 -0.33336,0.47338 -0.21335,0.19335 -0.51338,0.30003 -0.30002,0.10001 -0.66672,0.10001 z"
           id="path14197" />
      </g>
    </g>
    <g
       id="g25954-4-9-3-6-5-3-9-0-9-8"
       transform="matrix(0.22526742,0.26251965,-0.2532177,0.23375394,665.5155,-44.06485)"
       style="display:inline;fill:#33537d;fill-opacity:1;stroke-width:0;stroke-dasharray:none"
       inkscape:export-filename="ColoredWithoutText.png"
       inkscape:export-xdpi="197.3441"
       inkscape:export-ydpi="197.3441">
      <path
         d="M 144.80411,167.36964 98.087772,220.15369 C 89.043009,230.37323 73.372863,231.32885 63.154736,222.28534 52.936609,213.24182 51.979605,197.5704 61.02437,187.35087 l 5.640421,-6.37304 c 0.561226,-0.63412 0.698445,-1.49189 0.450828,-2.24301 -0.02945,-0.26287 -0.09727,-0.52321 -0.220222,-0.77337 -0.897176,-1.8118 -1.64849,-3.71293 -2.234243,-5.65009 -0.368634,-1.21551 -1.65122,-1.90071 -2.864076,-1.53508 -1.216946,0.36734 -1.900862,1.65113 -1.533658,2.86537 0.548621,1.81943 1.238462,3.60707 2.03525,5.33774 l -4.714376,5.3267 c -10.723377,12.11618 -9.590364,30.69593 2.525824,41.41931 12.114743,10.72211 30.695933,9.59035 41.419312,-2.52583 l 46.71626,-52.78398 c 0.84058,-0.94974 0.75065,-2.40174 -0.20054,-3.24359 -0.94831,-0.8393 -2.40047,-0.75212 -3.24104,0.19764"
         style="display:inline;fill:#33537d;fill-opacity:1;fill-rule:nonzero;stroke:none;stroke-width:0;stroke-dasharray:none"
         id="path21566-7-0-2-7-3-3-6-0-2-0-5" />
      <path
         d="m 149.65718,161.88623 -0.50768,0.57362 c -0.84184,0.95117 -0.75192,2.40317 0.19639,3.24246 0.9512,0.84185 2.40336,0.75468 3.2452,-0.19651 l 0.50768,-0.57361 c 0.84057,-0.94975 0.75065,-2.40175 -0.20055,-3.24361 -0.94831,-0.83929 -2.40047,-0.7521 -3.24104,0.19765"
         style="display:inline;fill:#33537d;fill-opacity:1;fill-rule:nonzero;stroke:none;stroke-width:0;stroke-dasharray:none"
         id="path21570-6-5-8-8-5-6-52-9-0-3-4" />
      <path
         d="m 117.33042,116.79844 -5.11615,5.78065 c -15.94372,-4.44728 -33.190633,0.0962 -43.322193,11.54365 -7.942742,8.97437 -12.795793,24.44774 -8.612133,39.33426 1.256626,1.60997 4.405279,-0.14689 4.235911,-1.76981 -3.691816,-14.43686 0.753861,-26.53996 7.816472,-34.51989 9.256538,-10.45882 25.308316,-14.38947 39.944793,-9.78064 0.89227,0.28118 1.82779,-0.009 2.41071,-0.66784 0.0325,-0.0367 0.055,-0.0795 0.0844,-0.11842 0.0356,-0.0341 0.074,-0.0606 0.10581,-0.0965 l 5.89425,-6.6598 c 9.04349,-10.21812 24.71364,-11.17374 34.93177,-2.13022 10.21956,9.04479 11.17369,24.71366 2.13019,34.93178 l -3.64164,4.11463 c -0.84183,0.95117 -0.75051,2.40448 0.1978,3.24379 0.94976,0.84057 2.40196,0.75336 3.24379,-0.19783 l 3.64164,-4.11463 c 10.72212,-12.11475 9.58892,-30.6972 -2.52583,-41.41932 -12.11474,-10.72211 -30.69721,-9.58892 -41.41931,2.52583"
         style="display:inline;fill:#33537d;fill-opacity:1;fill-rule:nonzero;stroke:none;stroke-width:0;stroke-dasharray:none"
         id="path21574-6-1-0-2-2-1-0-4-2-0-5"
         sodipodi:nodetypes="ccsccscsccssssssssc" />
    </g>
    <g
       aria-label="CLO"
       id="text1383-1-9-0-4-5"
       style="font-weight:600;font-size:17.4662px;font-family:Comfortaa;-inkscape-font-specification:'Comfortaa Semi-Bold';letter-spacing:2.74854px;fill:#e48412;stroke-width:0.782264;stroke-linecap:round;stroke-linejoin:round;stroke-dashoffset:1.69739;paint-order:stroke fill markers">
      <path
         d="m 632.34325,31.412182 q -1.41476,0 -2.65486,-0.523986 -1.22264,-0.541452 -2.14835,-1.484627 -0.90824,-0.960641 -1.43222,-2.235673 -0.50652,-1.275033 -0.50652,-2.75966 0,-1.467161 0.50652,-2.724727 0.52398,-1.275033 1.43222,-2.218207 0.92571,-0.960641 2.14835,-1.502094 1.22263,-0.541452 2.65486,-0.541452 1.3449,0 2.30554,0.349324 0.9781,0.349324 1.95621,1.152769 0.13973,0.104798 0.2096,0.227061 0.0873,0.104797 0.10479,0.227061 0.0349,0.104797 0.0349,0.261993 0,0.331857 -0.24453,0.558918 -0.22706,0.209594 -0.55892,0.244527 -0.33186,0.01747 -0.64625,-0.227061 -0.64625,-0.558918 -1.3449,-0.855844 -0.68118,-0.296925 -1.81648,-0.296925 -1.03051,0 -1.93875,0.419189 -0.90824,0.419188 -1.60689,1.152769 -0.68118,0.73358 -1.06544,1.711687 -0.38425,0.960641 -0.38425,2.061012 0,1.117837 0.38425,2.095944 0.38426,0.960641 1.06544,1.694221 0.69865,0.733581 1.60689,1.15277 0.90824,0.401722 1.93875,0.401722 0.89078,0 1.67675,-0.296925 0.80345,-0.314392 1.53703,-0.855844 0.31439,-0.227061 0.61132,-0.192128 0.31439,0.01747 0.52398,0.244527 0.2096,0.209594 0.2096,0.59385 0,0.174662 -0.0699,0.349324 -0.0699,0.157196 -0.20959,0.296926 -0.94318,0.751046 -2.02608,1.135303 -1.06544,0.384256 -2.25314,0.384256 z"
         style="font-weight:bold;-inkscape-font-specification:'Comfortaa Bold'"
         id="path14200" />
      <path
         d="m 643.44064,31.23752 q -0.38425,0 -0.64625,-0.261993 -0.24452,-0.261993 -0.24452,-0.646249 V 18.504661 q 0,-0.384257 0.26199,-0.64625 0.26199,-0.261993 0.62878,-0.261993 0.38426,0 0.64625,0.261993 0.26199,0.261993 0.26199,0.64625 v 10.916374 h 6.32277 q 0.38425,0 0.64625,0.261993 0.26199,0.261993 0.26199,0.64625 0,0.384256 -0.26199,0.646249 -0.262,0.261993 -0.64625,0.261993 z"
         style="font-weight:bold;-inkscape-font-specification:'Comfortaa Bold'"
         id="path14202" />
      <path
         d="m 661.59438,31.412182 q -1.53703,0 -2.81206,-0.50652 -1.27503,-0.523986 -2.20074,-1.449694 -0.90824,-0.943175 -1.41476,-2.218208 -0.50652,-1.292498 -0.50652,-2.829524 0,-1.537026 0.50652,-2.812058 0.50652,-1.275033 1.41476,-2.200741 0.92571,-0.943175 2.20074,-1.449695 1.27503,-0.523986 2.81206,-0.523986 1.53702,0 2.79459,0.523986 1.27503,0.50652 2.20074,1.449695 0.92571,0.925708 1.43223,2.200741 0.50652,1.275032 0.50652,2.812058 0,1.537026 -0.50652,2.829524 -0.50652,1.275033 -1.43223,2.218208 -0.92571,0.925708 -2.20074,1.449694 -1.25757,0.50652 -2.79459,0.50652 z m 0,-1.641823 q 1.1353,0 2.07848,-0.401722 0.96064,-0.419189 1.65928,-1.135303 0.69865,-0.733581 1.06544,-1.711688 0.38426,-0.978107 0.38426,-2.11341 0,-1.135303 -0.38426,-2.11341 -0.36679,-0.978107 -1.06544,-1.694222 -0.69864,-0.73358 -1.65928,-1.135302 -0.94318,-0.401723 -2.07848,-0.401723 -1.13531,0 -2.09595,0.401723 -0.94317,0.401722 -1.64182,1.135302 -0.68118,0.716115 -1.06544,1.694222 -0.38425,0.978107 -0.38425,2.11341 0,1.135303 0.38425,2.11341 0.38426,0.978107 1.06544,1.711688 0.69865,0.716114 1.64182,1.135303 0.96064,0.401722 2.09595,0.401722 z"
         style="font-weight:bold;-inkscape-font-specification:'Comfortaa Bold'"
         id="path14204" />
    </g>
  </g>
</svg>
